<svg width="30" height="27" viewBox="0 0 30 27" fill="none" xmlns="http://www.w3.org/2000/svg">
<path d="M0.5 14.2831H4.36194L7.64634 11.7096L9.09281 5.86408L11.4065 8.88517L18.8653 8.87288L21.1175 5.86408L22.5903 11.7096L25.8606 14.2831H29.7085L24.7775 10.2913L22.2129 0.416992L17.633 6.43635H12.5018L7.99742 0.416992L5.45732 10.3158L0.5 14.2831Z" fill="white"/>
<path d="M19.3164 14.2832L15.1051 21.2242L15.6335 22.0966L18.3562 26.5835L22.3006 20.0866L25.822 14.2832H19.3164Z" fill="white"/>
<path d="M10.8917 14.2832H4.38782L11.8519 26.5835L14.5763 22.0966L15.1047 21.2242L14.5763 20.3535L10.8917 14.2832Z" fill="white"/>
<path d="M12.7694 12.3818H10.8472V14.283H12.7694V12.3818Z" fill="white"/>
<path d="M19.315 12.3818H17.3928V14.283H19.315V12.3818Z" fill="white"/>
</svg>
